<svg xmlns="http://www.w3.org/2000/svg" version="1.1" width="256px" height="256px" style="shape-rendering:geometricPrecision; text-rendering:geometricPrecision; image-rendering:optimizeQuality; fill-rule:evenodd; clip-rule:evenodd" xmlns:xlink="http://www.w3.org/1999/xlink">
    <g><path style="opacity:0.982" fill="#d1d1d6" d="M 127.5,-0.5 C 127.833,-0.5 128.167,-0.5 128.5,-0.5C 140.415,16.9952 152.082,34.6619 163.5,52.5C 163.5,52.8333 163.5,53.1667 163.5,53.5C 155.074,61.2027 145.074,65.2027 133.5,65.5C 131.5,65.5 129.5,65.5 127.5,65.5C 127.5,43.5 127.5,21.5 127.5,-0.5 Z"/></g>
    <g><path style="opacity:0.982" fill="#eaeaef" d="M 126.5,-0.5 C 126.833,-0.5 127.167,-0.5 127.5,-0.5C 127.5,21.5 127.5,43.5 127.5,65.5C 113.593,66.8643 101.593,62.8643 91.5,53.5C 91.5,53.1667 91.5,52.8333 91.5,52.5C 102.918,34.6619 114.585,16.9952 126.5,-0.5 Z"/></g>
    <g><path style="opacity:0.964" fill="#d1d1d6" d="M 91.5,52.5 C 91.5,52.8333 91.5,53.1667 91.5,53.5C 73.9299,61.2809 61.2632,73.9476 53.5,91.5C 53.1667,91.5 52.8333,91.5 52.5,91.5C 49.2442,75.5541 46.2442,59.5541 43.5,43.5C 59.5541,46.2442 75.5541,49.2442 91.5,52.5 Z"/></g>
    <g><path style="opacity:0.961" fill="#b8b8bd" d="M 202.5,91.5 C 202.167,91.5 201.833,91.5 201.5,91.5C 193.719,73.9299 181.052,61.2632 163.5,53.5C 163.5,53.1667 163.5,52.8333 163.5,52.5C 179.453,49.2428 195.453,46.2428 211.5,43.5C 208.756,59.5541 205.756,75.5541 202.5,91.5 Z"/></g>
    <g><path style="opacity:1" fill="#a0a0a5" d="M 91.5,53.5 C 101.593,62.8643 113.593,66.8643 127.5,65.5C 129.5,65.5 131.5,65.5 133.5,65.5C 131.735,66.4614 129.735,66.7947 127.5,66.5C 127.5,73.8333 127.5,81.1667 127.5,88.5C 103.74,90.4271 90.7396,103.26 88.5,127C 90.2394,151.24 103.239,164.406 127.5,166.5C 127.5,173.833 127.5,181.167 127.5,188.5C 129.735,188.205 131.735,188.539 133.5,189.5C 131.5,189.5 129.5,189.5 127.5,189.5C 113.593,188.136 101.593,192.136 91.5,201.5C 74.5,193.167 61.8333,180.5 53.5,163.5C 62.8748,153.045 66.8748,140.712 65.5,126.5C 66.6515,112.952 62.6515,101.285 53.5,91.5C 61.2632,73.9476 73.9299,61.2809 91.5,53.5 Z"/></g>
    <g><path style="opacity:1" fill="#7d8287" d="M 163.5,53.5 C 181.052,61.2632 193.719,73.9299 201.5,91.5C 192.348,101.285 188.348,112.952 189.5,126.5C 188.125,140.712 192.125,153.045 201.5,163.5C 193.167,180.5 180.5,193.167 163.5,201.5C 155.074,193.797 145.074,189.797 133.5,189.5C 131.735,188.539 129.735,188.205 127.5,188.5C 127.5,181.167 127.5,173.833 127.5,166.5C 151.76,164.407 164.76,151.24 166.5,127C 164.279,103.28 151.279,90.4462 127.5,88.5C 127.5,81.1667 127.5,73.8333 127.5,66.5C 129.735,66.7947 131.735,66.4614 133.5,65.5C 145.074,65.2027 155.074,61.2027 163.5,53.5 Z"/></g>
    <g><path style="opacity:1" fill="#d1d1d6" d="M 127.5,88.5 C 127.5,93.5 127.5,98.5 127.5,103.5C 112.297,104.537 104.297,112.703 103.5,128C 104.742,142.742 112.742,150.575 127.5,151.5C 127.5,156.5 127.5,161.5 127.5,166.5C 103.239,164.406 90.2394,151.24 88.5,127C 90.7396,103.26 103.74,90.4271 127.5,88.5 Z"/></g>
    <g><path style="opacity:1" fill="#b8b8bd" d="M 127.5,88.5 C 151.279,90.4462 164.279,103.28 166.5,127C 164.76,151.24 151.76,164.407 127.5,166.5C 127.5,161.5 127.5,156.5 127.5,151.5C 142.75,150.417 150.75,142.25 151.5,127C 150.285,112.286 142.285,104.452 127.5,103.5C 127.5,98.5 127.5,93.5 127.5,88.5 Z"/></g>
    <g><path style="opacity:0.982" fill="#eaeaef" d="M 52.5,91.5 C 52.8333,91.5 53.1667,91.5 53.5,91.5C 62.6515,101.285 66.6515,112.952 65.5,126.5C 66.8748,140.712 62.8748,153.045 53.5,163.5C 53.1667,163.5 52.8333,163.5 52.5,163.5C 34.6619,152.082 16.9952,140.415 -0.5,128.5C -0.5,127.833 -0.5,127.167 -0.5,126.5C 16.9952,114.585 34.6619,102.918 52.5,91.5 Z"/></g>
    <g><path style="opacity:0.983" fill="#d1d1d6" d="M 201.5,91.5 C 201.833,91.5 202.167,91.5 202.5,91.5C 220.338,102.918 238.005,114.585 255.5,126.5C 255.5,127.167 255.5,127.833 255.5,128.5C 238.005,140.415 220.338,152.082 202.5,163.5C 202.167,163.5 201.833,163.5 201.5,163.5C 192.125,153.045 188.125,140.712 189.5,126.5C 188.348,112.952 192.348,101.285 201.5,91.5 Z"/></g>
    <g><path style="opacity:1" fill="#eaeaef" d="M 127.5,103.5 C 127.5,119.5 127.5,135.5 127.5,151.5C 112.742,150.575 104.742,142.742 103.5,128C 104.297,112.703 112.297,104.537 127.5,103.5 Z"/></g>
    <g><path style="opacity:1" fill="#d1d1d6" d="M 127.5,103.5 C 142.285,104.452 150.285,112.286 151.5,127C 150.75,142.25 142.75,150.417 127.5,151.5C 127.5,135.5 127.5,119.5 127.5,103.5 Z"/></g>
    <g><path style="opacity:0.963" fill="#d1d1d6" d="M 52.5,163.5 C 52.8333,163.5 53.1667,163.5 53.5,163.5C 61.8333,180.5 74.5,193.167 91.5,201.5C 91.5,201.833 91.5,202.167 91.5,202.5C 75.5541,205.756 59.5541,208.756 43.5,211.5C 46.2442,195.446 49.2442,179.446 52.5,163.5 Z"/></g>
    <g><path style="opacity:0.963" fill="#b8b8bd" d="M 201.5,163.5 C 201.833,163.5 202.167,163.5 202.5,163.5C 205.756,179.446 208.756,195.446 211.5,211.5C 195.453,208.757 179.453,205.757 163.5,202.5C 163.5,202.167 163.5,201.833 163.5,201.5C 180.5,193.167 193.167,180.5 201.5,163.5 Z"/></g>
    <g><path style="opacity:0.983" fill="#eaeaef" d="M 127.5,189.5 C 127.5,211.5 127.5,233.5 127.5,255.5C 127.167,255.5 126.833,255.5 126.5,255.5C 114.585,238.005 102.918,220.338 91.5,202.5C 91.5,202.167 91.5,201.833 91.5,201.5C 101.593,192.136 113.593,188.136 127.5,189.5 Z"/></g>
    <g><path style="opacity:0.982" fill="#d1d1d6" d="M 127.5,189.5 C 129.5,189.5 131.5,189.5 133.5,189.5C 145.074,189.797 155.074,193.797 163.5,201.5C 163.5,201.833 163.5,202.167 163.5,202.5C 152.082,220.338 140.415,238.005 128.5,255.5C 128.167,255.5 127.833,255.5 127.5,255.5C 127.5,233.5 127.5,211.5 127.5,189.5 Z"/></g>
</svg>
